<?xml version="1.0" standalone="no"?><!DOCTYPE svg PUBLIC "-//W3C//DTD SVG 1.1//EN" "http://www.w3.org/Graphics/SVG/1.1/DTD/svg11.dtd"><svg t="1767252082213" class="icon" viewBox="0 0 1024 1024" version="1.1" xmlns="http://www.w3.org/2000/svg" p-id="2688" xmlns:xlink="http://www.w3.org/1999/xlink" width="200" height="200"><path d="M972.8 563.2h-54.7328A408.5248 408.5248 0 0 1 563.2 916.8384V972.8a51.2 51.2 0 0 1-102.4 0v-55.9616A408.5248 408.5248 0 0 1 105.9328 563.2H51.2a51.2 51.2 0 1 1 0-102.4h56.0128A408.4224 408.4224 0 0 1 460.8 105.9328V51.2a51.2 51.2 0 0 1 102.4 0v54.7328A408.5248 408.5248 0 0 1 916.8384 460.8H972.8a51.2 51.2 0 0 1 0 102.4z m-460.8-358.4a307.2 307.2 0 1 0 307.2 307.2 307.2 307.2 0 0 0-307.2-307.2z m0 409.6a102.4 102.4 0 1 1 102.4-102.4 102.4 102.4 0 0 1-102.4 102.4z" fill="#2c2c2c" p-id="2689"></path></svg>